PathFileType	4	(X/Y/Z)	C:\Users\avatar\Documents\avatar\mocap1\10002-20130626160334-Unnamed.trc
DataRate	CameraRate	NumFrames	NumMarkers	Units	OrigDataRate	OrigDataStartFrame	OrigNumFrames
400.00	400.00	       147	0	mm	400.00	1	       882
Frame#	Time	
		

1	0.000	
2	0.002	
3	0.005	
4	0.007	
5	0.010	
6	0.013	
7	0.015	
8	0.018	
9	0.020	
10	0.023	
11	0.025	
12	0.027	19.91857	1362.18750	-124.33382	
13	0.030	19.89101	1362.16931	-124.33372	
14	0.032	19.86585	1362.15625	-124.32466	
15	0.035	19.77428	1362.06726	-124.27872	
16	0.038	19.75014	1362.06824	-124.28562	
17	0.040	19.67846	1362.02307	-124.25261	
18	0.043	19.58618	1361.96912	-124.21208	
19	0.045	19.31182	1361.93384	-124.08716	
20	0.047	19.08334	1361.93323	-123.95975	
21	0.050	18.98715	1361.88892	-123.92220	
22	0.052	18.89087	1361.82471	-123.89738	
23	0.055	18.77678	1361.83057	-123.77017	
24	0.058	18.65413	1361.72766	-123.70127	
25	0.060	18.47060	1361.56946	-123.62273	
26	0.063	18.12652	1361.40796	-123.54252	
27	0.065	17.99167	1361.28687	-123.46557	
28	0.068	
29	0.070	
30	0.072	
31	0.075	
32	0.078	
33	0.080	
34	0.083	
35	0.085	
36	0.087	
37	0.090	444.30255	726.14496	-56.26184	
38	0.093	444.72781	728.03125	-57.15419	
39	0.095	445.25055	729.79590	-58.02141	
40	0.097	445.62952	731.34412	-58.77110	
41	0.100	445.43185	732.21478	-59.08045	
42	0.102	446.09387	734.14282	-60.06001	
43	0.105	446.60165	735.79987	-60.88211	
44	0.108	446.82043	736.84491	-61.37976	
45	0.110	
46	0.112	
47	0.115	
48	0.117	
49	0.120	
50	0.123	
51	0.125	341.61200	563.81378	-172.71231	
52	0.127	342.21857	565.79108	-173.56271	
53	0.130	342.67941	567.46674	-174.25214	
54	0.132	343.22278	569.54633	-175.13033	-323.30789	1129.70264	50.12206	
55	0.135	343.67596	571.27985	-175.85274	
56	0.138	344.15524	572.89648	-176.52278	
57	0.140	344.81677	575.21045	-177.50877	
58	0.142	345.38565	577.26709	-178.37663	
59	0.145	345.78979	579.20538	-179.14879	
60	0.147	346.39108	581.20239	-180.00015	
61	0.150	347.05298	583.25024	-180.88017	
62	0.153	347.64987	585.28345	-181.73044	
63	0.155	348.26599	587.34924	-182.60661	
64	0.157	348.88705	589.21643	-183.40962	
65	0.160	349.46201	591.16504	-184.22037	
66	0.162	349.90424	593.29095	-185.06717	
67	0.165	350.49216	595.49664	-185.99936	
68	0.168				12.95203	1361.62988	-122.64712	
69	0.170				12.76269	1361.64331	-122.56169	
70	0.172				12.92508	1361.70679	-122.76743	
71	0.175				12.56748	1361.76270	-122.65962	
72	0.177				12.67162	1362.19409	-123.08204	
73	0.180				12.67712	1362.23816	-123.12591	
74	0.183				13.36322	1363.31653	-123.72231	
75	0.185				12.52026	1362.24023	-123.22305	
76	0.188				13.36865	1363.25159	-123.83701	
77	0.190				13.38198	1363.28503	-123.88010	
78	0.192				13.16247	1363.24670	-123.89085	
79	0.195				12.98544	1363.22656	-123.92894	
80	0.198				12.68253	1363.27515	-123.72411	
81	0.200				12.81254	1363.26392	-123.83554	
82	0.203				12.44202	1363.28052	-123.74709	
83	0.205				12.39893	1363.28040	-123.74540	
84	0.207				12.30646	1363.23572	-123.72334	
85	0.210				12.21314	1363.19641	-123.69303	
86	0.213				12.15512	1363.22656	-123.69166	
87	0.215				11.67336	1363.18835	-123.61103	
88	0.218				11.53539	1363.13928	-123.58057	
89	0.220	
90	0.222	
91	0.225	
92	0.228	
93	0.230	
94	0.233	
95	0.235	
96	0.237	
97	0.240	
98	0.243	
99	0.245	
100	0.248	
101	0.250	
102	0.252	
103	0.255	
104	0.257	
105	0.260	
106	0.262	
107	0.265	
108	0.268	
109	0.270	
110	0.273	
111	0.275	
112	0.278	
113	0.280	-636.23059	-1413.72607	1092.45557	
114	0.282	
115	0.285	
116	0.287	
117	0.290	-45.22120	1181.46997	-168.20294	
118	0.292				-45.12061	1181.79285	-168.20592	
119	0.295				-45.16990	1181.96436	-168.34544	
120	0.298				-45.34683	1182.16748	-168.49536	
121	0.300				-45.20330	1182.32629	-168.59401	
122	0.303				-45.09824	1182.59741	-168.62448	
123	0.305				-45.42190	1182.74548	-168.73662	
124	0.308				-45.40961	1182.84924	-168.84200	
125	0.310				-45.40348	1183.10486	-168.84473	
126	0.313				-45.52184	1183.35327	-168.95416	
127	0.315				-45.45559	1183.56934	-169.07228	
128	0.317	-636.79407	-1414.80225	1092.00769	-45.54079	1183.80847	-169.22223	
129	0.320				-45.47930	1184.03027	-169.30537	
130	0.322				-45.56797	1184.33081	-169.46101	
131	0.325				-45.39823	1184.57666	-169.56958	
132	0.327				-45.30671	1184.77002	-169.67239	
133	0.330				-45.20264	1185.06775	-169.70412	
134	0.333				-45.33446	1185.29004	-169.74455	
135	0.335				-45.26670	1185.60217	-169.81235	
136	0.338				-45.35987	1185.83789	-169.87547	
137	0.340				-45.31636	1186.03137	-169.88200	
138	0.343				-45.28154	1186.22778	-170.05991	
139	0.345	-640.56238	-1425.29541	1094.99927	-45.28450	1186.47986	-170.15512	
140	0.347				-45.44116	1186.79919	-170.33990	
141	0.350	765.32935	1394.12219	-369.19608	-45.63240	1187.03223	-170.46144	
142	0.352				-45.85463	1187.26855	-170.59200	765.34070	1394.15222	-369.26044	
143	0.355				-46.09323	1187.56958	-170.63004	765.43573	1394.32104	-369.41629	
144	0.357				-46.17342	1187.86707	-170.66245	765.59851	1394.39160	-369.48514	
145	0.360				-46.28414	1188.08740	-170.83057	765.72729	1394.66724	-369.70779	
146	0.363	459.28571	799.04449	-283.34711	-46.44879	1188.31030	-171.08258	765.76312	1394.71228	-369.72879	
147	0.365	459.94653	799.93732	-283.66861	-46.26212	1188.73499	-171.27533	765.81567	1394.81995	-369.83524	
